<svg width="1069" height="187" viewBox="0 0 1069 187" fill="none" xmlns="http://www.w3.org/2000/svg">
<path d="M0.667 165.41C0.3 165.776 0 166.676 0 167.41C0 168.508 12.583 168.743 71.5 168.743C142.333 168.743 143 168.724 143 166.743C143 164.762 142.333 164.743 72.167 164.743C33.208 164.743 1.033 165.043 0.667 165.41Z" fill="white"/>
<path d="M916.676 166.145C916.38 166.916 916.407 167.816 916.736 168.145C917.064 168.474 948.533 168.743 986.667 168.743C1055.33 168.743 1056 168.724 1056 166.743C1056 164.762 1055.33 164.743 986.607 164.743C927.997 164.743 917.13 164.961 916.676 166.145Z" fill="white"/>
<path d="M126.715 0.743206C124.94 1.09621 116.974 9.68427 99.587 29.9933C86.048 45.8063 74.558 58.7433 74.054 58.7433C73.549 58.7433 69.623 54.5803 65.329 49.4933C61.035 44.4063 56.753 39.3963 55.813 38.3603C54.873 37.3243 47.443 28.4452 39.302 18.6282L24.5 0.779217L12.25 0.761211L0 0.743206V51.7433V102.743H11.5C21.736 102.743 23.014 102.551 23.13 100.993C23.202 100.031 23.398 84.8433 23.567 67.2433C23.735 49.6433 23.901 35.1023 23.936 34.9303C23.971 34.7583 27.937 39.2203 32.75 44.8463C52.037 67.3963 73.188 91.7404 73.825 92.1254C74.52 92.5464 76.467 90.3653 105.783 56.3163C115.289 45.2763 123.501 36.0933 124.033 35.9103C124.643 35.6993 125 47.9723 125 69.1603V102.743H136.5H148V51.8122V0.88023L138.614 0.562176C133.452 0.386176 128.097 0.468206 126.715 0.743206Z" fill="white"/>
<path d="M251.673 6.96421C247.376 14.7682 223.668 57.6333 220.269 63.7433C218.892 66.2183 213.543 75.8254 208.383 85.0924C203.222 94.3594 199 102.122 199 102.342C199 102.563 204.844 102.743 211.986 102.743H224.971L227.937 96.8683C229.568 93.6363 235.469 82.7404 241.049 72.6554C246.629 62.5694 254.281 48.4503 258.054 41.2803C258.824 39.8163 259.528 38.4684 260.173 37.2322C264.325 29.2777 266.065 25.9456 267.608 26.034C268.72 26.0978 269.731 27.9392 271.47 31.1078L271.472 31.1106L271.476 31.118C271.85 31.7987 272.257 32.5407 272.706 33.3393C275.46 38.2363 279.435 45.3933 281.54 49.2433C296.83 77.2203 303.409 89.1923 306.956 95.4933L311.037 102.743H323.518C330.383 102.743 336 102.491 336 102.183C336 101.874 328.073 87.3623 318.385 69.9333L300.703 38.1208L292.989 24.2433C288.709 16.5433 284.08 8.21821 282.703 5.74321L280.199 1.24321L267.665 0.964214L255.131 0.684185L251.673 6.96421Z" fill="white"/>
<path d="M368 11.2432V21.7433H394.5H421V62.2433V102.743H433H445V62.2433V21.7433H471.532H498.064L497.782 11.2512L497.5 0.760235L432.75 0.751202L368 0.743206V11.2432Z" fill="white"/>
<path d="M552.25 0.50523L550 0.882183V51.8133V102.743H561.487H572.974L573.237 68.5873L573.5 34.4303L583.662 46.3373C589.251 52.8853 599.357 64.7684 606.119 72.7434C612.882 80.7184 619.598 88.5214 621.043 90.0824L623.672 92.9214L635.586 79.1704C642.139 71.6064 650.875 61.5382 655 56.7962C664.688 45.6582 670.552 38.7453 672.433 36.2433C673.781 34.4503 673.94 37.7873 673.968 68.4933L674 102.743H686H698V51.8853V1.02818L692 0.401226C688.7 0.056226 683.282 0.0581933 679.96 0.405193L673.92 1.03624L649.237 29.8902C635.662 45.7592 624.317 58.7363 624.027 58.7283C622.775 58.6913 620.679 56.4093 608.431 41.7433C577.403 4.58827 574.115 0.984231 570.718 0.406231C567.279 -0.179769 555.971 -0.11877 552.25 0.50523Z" fill="white"/>
<path fill-rule="evenodd" clip-rule="evenodd" d="M807 0.742229C779.232 1.13423 770.955 1.54723 769 2.63823C763.49 5.71223 759.253 9.85823 756.449 14.9192L753.5 20.2433L753.196 50.4773C752.911 78.8613 753.014 80.9864 754.882 85.2104C757.811 91.8304 761.726 96.4973 766.906 99.5433L771.5 102.243L818 102.532L818.351 102.534C860.123 102.794 868.069 102.844 873.483 99.1665C874.755 98.3028 875.887 97.2335 877.285 95.9129L877.335 95.8653C885.407 88.2403 885.462 87.9703 885.805 54.4383C886.162 19.6043 885.706 16.7112 878.732 9.53624C876.387 7.12224 872.45 4.2032 869.984 3.0482C864.322 0.397199 855.169 0.0622295 807 0.742229ZM860.41 26.0873C859.26 24.5493 857.235 22.9873 855.91 22.6163C854.584 22.2463 837.975 21.9133 819 21.8783C792.136 21.8283 783.971 22.1073 782.11 23.1393C777.43 25.7323 777.073 27.7323 777.035 51.5433C776.999 74.6933 777.607 78.6114 781.467 80.0924C782.315 80.4174 799.464 80.7274 819.577 80.7804L820.957 80.7841H820.958C851.493 80.8662 858.142 80.8841 860.531 77.7027C861.197 76.817 861.532 75.6834 861.96 74.2344L862.03 73.9974C862.74 71.6004 863.026 62.7693 862.821 49.5633C862.524 30.4223 862.344 28.6753 860.41 26.0873Z" fill="white"/>
<path d="M943.25 0.409222L940 0.87022V51.8063V102.743H952H964V66.6272V30.5103L968.25 34.2793C970.588 36.3523 980.825 45.7633 991 55.1933C1001.18 64.6223 1017.01 79.1784 1026.2 87.5404L1042.9 102.743H1055.95H1069V51.9103C1069 23.9513 1068.81 0.889198 1068.59 0.660198C1068.36 0.431198 1062.96 0.38318 1056.59 0.55418L1045 0.864178V36.8763V72.8884L1042.33 70.7913C1040.87 69.6383 1036.9 66.1183 1033.52 62.9693C1030.14 59.8203 1022.92 53.1933 1017.46 48.2433C1003.49 35.5573 995.287 28.0593 989.5 22.6773C968.207 2.87329 965.574 0.782188 961.897 0.762188C959.915 0.752188 955.64 0.564233 952.397 0.346233C949.154 0.127233 945.037 0.156222 943.25 0.409222Z" fill="white"/>
<path d="M335.741 152.172C328.181 154.87 325.998 158.629 326.004 168.943C326.01 181.079 330.196 185.666 342.035 186.513C350.946 187.151 357.033 185.044 359.96 180.307C362.732 175.823 362.533 174.743 358.935 174.743C356.758 174.743 355.14 175.611 353.347 177.743C351.022 180.506 350.312 180.743 344.366 180.743C338.844 180.743 337.554 180.388 335.455 178.288C333.31 176.144 333 174.938 333 168.743C333 162.548 333.31 161.342 335.455 159.198C337.528 157.124 338.863 156.743 344.053 156.743C349.591 156.743 350.474 157.039 353 159.743C354.914 161.792 356.757 162.743 358.815 162.743C361.474 162.743 361.749 162.477 361.164 160.476C359.99 156.467 357.289 153.608 353.347 152.202C348.455 150.458 340.582 150.445 335.741 152.172Z" fill="white"/>
<path d="M191.75 151.489C181.076 151.808 181 151.828 181 154.277C181 156.645 181.257 156.743 187.5 156.743H194V171.243V185.743H197.5H201V171.289V156.834L207.67 156.539C213.668 156.273 214.356 156.027 214.495 154.105C214.625 152.298 213.958 151.872 210.185 151.355C207.73 151.018 204.996 150.839 204.11 150.955C203.225 151.072 197.663 151.312 191.75 151.489Z" fill="white"/>
<path d="M255.351 152.281C255.13 152.853 255.073 160.635 255.224 169.576L255.5 185.832L270 185.902L284.5 185.971L284.816 183.357L285.133 180.743H273.566H262V175.743V170.743H272H282V168.243V165.743H272H262V161.243V156.743H273.566H285.133L284.816 153.993L284.5 151.243H270.127C261.116 151.243 255.604 151.63 255.351 152.281Z" fill="white"/>
<path d="M404.464 151.613C404.209 151.868 404 159.651 404 168.91V185.743H407.456H410.912L411.206 178.493L411.5 171.243L421.75 170.958L432 170.673V178.041C432 182.094 432.222 185.632 432.494 185.904C432.766 186.176 434.341 186.2 435.994 185.957L439 185.516V168.743V151.97L435.994 151.529C434.341 151.286 432.766 151.31 432.494 151.582C432.222 151.854 432 155.151 432 158.91V165.743H421.544H411.088L410.794 158.493C410.503 151.311 410.474 151.243 407.714 151.196C406.181 151.17 404.719 151.358 404.464 151.613Z" fill="white"/>
<path d="M483 168.576C483 177.835 483.222 185.632 483.494 185.904C483.766 186.176 485.328 186.202 486.964 185.962L489.94 185.525L490.22 173.462L490.5 161.4L499.915 172.822C511.092 186.38 511.412 186.669 514.835 186.305L517.5 186.022L517.774 168.882L518.047 151.743H515.024H512V163.743C512 170.343 511.631 175.743 511.179 175.743C510.728 175.743 507.94 172.705 504.984 168.993C492.663 153.518 490.812 151.769 486.75 151.756L483 151.743V168.576Z" fill="white"/>
<path fill-rule="evenodd" clip-rule="evenodd" d="M571.275 151.714C562.774 153.734 559.596 159.079 560.168 170.397C560.785 182.622 565.086 186.24 579 186.242C586.087 186.243 588.104 185.868 591.132 183.984C596.129 180.877 597.278 177.507 596.854 167.202C596.516 158.959 596.359 158.453 593.303 155.723C588.259 151.216 579.829 149.682 571.275 151.714ZM590.381 168.615C590.281 162.817 589.875 161.239 587.956 159.196C585.943 157.054 584.782 156.743 578.78 156.743C572.741 156.743 571.599 157.053 569.348 159.304C566.967 161.685 566.814 162.394 567.169 169.412C567.664 179.226 569.24 180.743 578.936 180.743C584.863 180.743 585.936 180.44 588.076 178.161C590.194 175.905 590.485 174.701 590.381 168.615Z" fill="white"/>
<path fill-rule="evenodd" clip-rule="evenodd" d="M718.275 151.714C710.088 153.659 706.361 160.198 707.235 171.085C708.163 182.644 712.594 186.221 726 186.234C735.397 186.244 739.461 184.649 742.251 179.857C746.197 173.081 745.11 160.106 740.21 155.485C735.763 151.291 726.65 149.724 718.275 151.714ZM737.5 168.576C737.5 162.139 737.272 161.374 734.694 159.156C732.409 157.191 730.831 156.756 726.194 156.811C723.062 156.848 719.52 157.352 718.321 157.932C715.116 159.481 713.698 163.894 714.196 170.771C714.784 178.909 716.144 180.112 725.267 180.566C732.04 180.903 732.659 180.756 735 178.254C737.175 175.93 737.5 174.67 737.5 168.576Z" fill="white"/>
<path d="M640 168.576C640 177.835 640.186 185.597 640.413 185.826C640.641 186.056 647.166 186.107 654.913 185.94L669 185.638V183.19V180.743H658H647V166.243V151.743H643.5H640V168.576Z" fill="white"/>
<path d="M797.5 151.415C789.389 153.2 786.027 157.537 785.25 167.221C784.627 174.98 787.179 181.212 792.229 184.264C796.123 186.618 809.603 187.047 814.5 184.972C819.285 182.946 822.176 177.854 821.809 172.099L821.5 167.25L812.5 167.247L803.5 167.243L803.184 169.993C802.869 172.726 802.906 172.743 808.934 172.743C814.05 172.743 814.998 173.017 814.985 174.493C814.948 178.698 811.105 180.743 803.24 180.743C798.227 180.743 796.994 180.365 794.966 178.207C792.899 176.006 792.593 174.728 792.65 168.528C792.709 162.049 792.966 161.169 795.413 159.064C797.586 157.195 799.277 156.743 804.101 156.743C809.157 156.743 810.481 157.133 812.591 159.243C815.266 161.918 821 162.752 821 160.466C821 154.083 808.047 149.094 797.5 151.415Z" fill="white"/>
<path d="M858 151.625C858 152.227 858.653 153.513 859.452 154.482C860.25 155.45 863.622 160.068 866.944 164.743C872.844 173.048 872.983 173.394 872.992 179.789C873 186.274 873.026 186.335 875.75 186.289C878.435 186.244 878.512 186.078 879 179.239C879.487 172.41 879.683 171.985 886.801 162.239L894.103 152.243L891.301 151.68C889.761 151.37 888.05 151.267 887.5 151.451C886.95 151.634 884.267 154.925 881.539 158.764C878.81 162.602 876.296 165.743 875.952 165.743C875.608 165.743 873.155 162.593 870.5 158.743C866.935 153.573 865.084 151.743 863.419 151.743C862.178 151.743 860.452 151.47 859.582 151.136C858.712 150.802 858 151.022 858 151.625Z" fill="white"/>
</svg>
