<svg width="1069" height="570" viewBox="0 0 1069 570" fill="none" xmlns="http://www.w3.org/2000/svg">
<path d="M502.421 66.3461C491.782 74.6701 481.243 82.8001 428.5 123.372C415.3 133.527 403.874 142.404 403.109 143.1C401.957 144.149 402.866 144.886 408.422 147.405C424.453 154.674 435.587 167.69 440.929 185.405L442.555 190.797L448.527 185.847C456.738 179.041 504.444 140.594 508.502 137.513C512.42 134.537 530.871 119.594 551.12 102.996C567.089 89.9071 567.06 89.9781 556.5 89.6101C546.779 89.2711 530.204 80.4371 523.085 71.8001C521.398 69.7531 518.777 65.7032 517.259 62.7992C515.742 59.8942 514.275 57.5542 514 57.5982C513.725 57.6422 508.515 61.5791 502.421 66.3461Z" fill="black"/>
<path fill-rule="evenodd" clip-rule="evenodd" d="M611.703 42.7932C610.673 53.8152 604.291 65.0741 594.835 72.5491L589.995 76.3751L594.247 79.8041C596.586 81.6901 616.006 96.3471 637.402 112.376L676.304 141.519L678.575 135.931C682.673 125.847 687.917 120.158 697.757 115.121L701.014 113.454L690.757 104.755C687.604 102.081 681.277 96.7628 673.637 90.3409C654.209 74.0116 626.294 50.5475 620.5 45.283C620.352 45.1855 620.197 45.0835 620.038 44.9782C616.97 42.9527 611.995 39.6682 611.703 42.7932ZM557.5 0.529155C533.779 4.25216 519.598 30.7182 529.422 52.9332C533.775 62.7762 543.091 70.7551 553.932 73.9251C568.362 78.1441 584.174 72.8252 593.945 60.4632C599.242 53.7622 601.493 46.8062 601.403 37.4142C601.342 31.0442 600.809 28.6992 598.111 22.9142C591.684 9.13517 581.583 2.16417 565 0.0611683C563.625 -0.112832 560.25 0.0971553 557.5 0.529155ZM570.761 16.0352C586.425 20.6862 592.022 39.9502 581.337 52.4332C570.109 65.5502 549.176 62.2242 542.216 46.2162C540.522 42.3192 540.698 33.1722 542.553 28.7312C545.16 22.4892 550.803 17.6352 557.994 15.4472C561.948 14.2452 565.244 14.3962 570.761 16.0352ZM545.433 122.786C536.045 131.161 526.37 139.747 523.933 141.867C514.696 149.897 506.421 157.185 501.056 162.015C498 164.766 483.297 177.693 468.382 190.74C443.327 212.658 441.217 214.757 440.646 218.325C439.449 225.81 433.116 236.465 425.077 244.52C413.259 256.361 400.654 261.513 383.5 261.513C366.914 261.513 353.448 255.964 341.75 244.308L335 237.582V261.514V285.445L324.25 285.729C313.962 286.001 313.486 286.11 313.18 288.263L312.861 290.513H397.93H483L482.983 286.263C482.914 269.401 473.066 250.914 459.105 241.442C456.326 239.556 454.04 237.662 454.026 237.234C454.012 236.805 460.413 229.133 468.25 220.185C485.983 199.939 494.472 189.935 531.215 145.979L532.932 143.925C560.913 110.451 563.186 107.731 562.994 107.544C562.973 107.523 562.922 107.533 562.872 107.536C562.668 107.548 554.82 114.411 545.433 122.786ZM703.409 122.277C697.228 124.488 693.082 127.704 689.583 133.004C682.693 143.438 683.897 157.724 692.425 166.712C694.847 169.264 694.94 169.751 694.131 175.666C693.66 179.106 692.827 182.071 692.279 182.253C688.925 183.371 688.089 185.914 684.636 205.513C679.638 233.876 680.092 235.268 697.787 245.806C727.513 263.508 732.016 265.415 736.446 262.176C738.193 260.898 738.13 260.457 735.004 252.176C733.206 247.411 731.228 243.513 730.61 243.513C729.311 243.513 710.603 231.257 707.25 228.209C704.432 225.649 704.358 221.802 706.963 213.367C708.496 208.406 710.012 205.941 713.867 202.144L718.807 197.278L717.022 190.645C716.04 186.998 714.962 182.159 714.627 179.893L714.018 175.774L718.12 175.224C720.377 174.921 724.453 173.287 727.178 171.593C729.903 169.899 732.324 168.513 732.558 168.513C733.905 168.513 739.622 175.867 742.803 181.69C746.384 188.248 746.642 188.479 751 189.024C753.475 189.334 757.075 190.018 759 190.544C764.276 191.985 774.129 197.805 776.366 200.802C778.344 203.451 778.344 203.466 776.061 215.233C774.804 221.712 773.171 228.482 772.433 230.278C771.179 233.326 771.332 234.081 774.733 241.628L778.377 249.713L781.852 249.15C783.764 248.839 785.728 248.185 786.218 247.695C787.882 246.031 800 205.277 800 201.345C800 197.699 797.738 192.113 794.773 188.435C792.252 185.308 757.247 159.792 754.549 159.115C752.731 158.658 750.983 158.949 749.429 159.967C746.819 161.678 742.278 161.975 740.073 160.579C738.877 159.823 738.84 158.807 739.842 154.33C741.877 145.233 738.469 133.949 731.845 127.856C724.713 121.294 712.728 118.943 703.409 122.277ZM720.938 135.353C727.772 140.353 729.826 149.051 725.792 155.909C718.595 168.143 699.887 164.64 697.517 150.615C696.326 143.565 701.696 135.052 708.5 133.203C711.781 132.312 718.329 133.443 720.938 135.353ZM368.579 159.573C338.021 170.304 328.923 210.011 351.715 233.169C379.708 261.612 428.08 241.346 427.988 201.214C427.951 184.751 417.469 168.418 402.347 161.256C396.167 158.329 394.478 157.988 385 157.753C376.463 157.542 373.393 157.883 368.579 159.573ZM392.205 177.067C409.935 183.108 415.45 207.742 401.829 220.049C393.227 227.82 382.275 229.727 372.5 225.155C363.209 220.809 358.187 213.663 357.263 203.474C355.563 184.726 373.935 170.842 392.205 177.067ZM126.715 383.513C124.94 383.866 116.974 392.454 99.587 412.763C86.048 428.576 74.558 441.513 74.054 441.513C73.549 441.513 69.623 437.35 65.329 432.263C61.035 427.176 56.753 422.166 55.813 421.13C54.873 420.094 47.443 411.215 39.302 401.398L24.5 383.549L12.25 383.531L0 383.513V434.513V485.513H11.5C21.736 485.513 23.014 485.321 23.13 483.763C23.202 482.801 23.398 467.613 23.567 450.013C23.735 432.413 23.901 417.872 23.936 417.7C23.971 417.528 27.937 421.99 32.75 427.616C52.037 450.166 73.188 474.51 73.825 474.895C74.52 475.316 76.467 473.135 105.783 439.086C115.289 428.046 123.501 418.863 124.033 418.68C124.643 418.469 125 430.742 125 451.93V485.513H136.5H148V434.582V383.65L138.614 383.332C133.452 383.156 128.097 383.238 126.715 383.513ZM552.25 383.275L550 383.652V434.583V485.513H561.487H572.974L573.237 451.357L573.5 417.2L583.662 429.107C589.251 435.655 599.357 447.538 606.119 455.513C612.882 463.488 619.598 471.291 621.043 472.852L623.672 475.691L635.586 461.94C642.139 454.376 650.875 444.308 655 439.566C664.688 428.428 670.552 421.515 672.433 419.013C673.781 417.22 673.94 420.557 673.968 451.263L674 485.513H686H698V434.655V383.798L692 383.171C688.7 382.826 683.282 382.828 679.96 383.175L673.92 383.806L649.237 412.66C635.662 428.529 624.317 441.506 624.027 441.498C622.775 441.461 620.679 439.179 608.431 424.513C577.403 387.358 574.115 383.754 570.718 383.176C567.279 382.59 555.971 382.651 552.25 383.275ZM807 383.512C779.232 383.904 770.955 384.317 769 385.408C763.49 388.482 759.253 392.628 756.449 397.689L753.5 403.013L753.196 433.247C752.911 461.631 753.014 463.756 754.882 467.98C757.811 474.6 761.726 479.267 766.906 482.313L771.5 485.013L818 485.302L818.351 485.304C860.123 485.565 868.069 485.614 873.483 481.937C874.755 481.073 875.887 480.004 877.285 478.683L877.335 478.635C885.407 471.01 885.462 470.74 885.805 437.208C886.162 402.374 885.706 399.481 878.732 392.306C876.387 389.892 872.45 386.973 869.984 385.818C864.322 383.167 855.169 382.832 807 383.512ZM943.25 383.179L940 383.64V434.576V485.513H952H964V449.397V413.28L968.25 417.049C970.588 419.122 980.825 428.533 991 437.963C1001.18 447.392 1017.01 461.949 1026.2 470.311L1042.9 485.513H1055.95H1069V434.68C1069 406.721 1068.81 383.659 1068.59 383.43C1068.36 383.201 1062.96 383.153 1056.59 383.324L1045 383.634V419.646V455.658L1042.33 453.561C1040.87 452.408 1036.9 448.888 1033.52 445.739C1030.14 442.59 1022.92 435.963 1017.46 431.013C1003.49 418.327 995.287 410.829 989.5 405.447C968.207 385.643 965.574 383.552 961.897 383.532C959.915 383.522 955.64 383.334 952.397 383.116C949.154 382.897 945.037 382.926 943.25 383.179ZM251.673 389.734C247.376 397.538 223.668 440.403 220.269 446.513C218.892 448.988 213.543 458.596 208.383 467.863C203.222 477.13 199 484.892 199 485.112C199 485.333 204.844 485.513 211.986 485.513H224.971L227.937 479.638C229.568 476.406 235.469 465.51 241.049 455.425C246.629 445.339 254.281 431.22 258.054 424.05C258.824 422.586 259.528 421.238 260.173 420.002C264.325 412.048 266.065 408.716 267.608 408.804C268.72 408.868 269.731 410.709 271.47 413.878C271.846 414.561 272.255 415.307 272.706 416.109C275.46 421.006 279.435 428.163 281.54 432.013C296.83 459.99 303.409 471.962 306.956 478.263L311.037 485.513H323.518C330.383 485.513 336 485.261 336 484.953C336 484.644 328.073 470.132 318.385 452.703C312.465 442.052 305.894 430.231 300.703 420.891L292.989 407.013C288.709 399.313 284.08 390.988 282.703 388.513L280.199 384.013L267.665 383.734L255.131 383.454L251.673 389.734ZM368 394.013V404.513H394.5H421V445.013V485.513H433H445V445.013V404.513H471.532H498.064L497.782 394.021L497.5 383.53L432.75 383.521L368 383.513V394.013ZM855.91 405.386C857.235 405.757 859.26 407.319 860.41 408.857C862.344 411.445 862.524 413.192 862.821 432.333C863.026 445.539 862.74 454.37 862.03 456.767L861.96 457.004C861.532 458.454 861.197 459.587 860.531 460.473C858.142 463.654 851.493 463.636 820.957 463.554L819.577 463.55C799.464 463.497 782.315 463.187 781.467 462.862C777.607 461.381 776.999 457.463 777.035 434.313C777.073 410.502 777.43 408.502 782.11 405.909C783.971 404.877 792.136 404.598 819 404.648C837.975 404.683 854.584 405.016 855.91 405.386ZM191.75 534.259C181.076 534.578 181 534.598 181 537.047C181 539.415 181.257 539.513 187.5 539.513H194V554.013V568.513H197.5H201V554.059V539.604L207.67 539.309C213.668 539.043 214.356 538.797 214.495 536.875C214.625 535.068 213.958 534.642 210.185 534.125C207.73 533.788 204.996 533.609 204.11 533.725C203.225 533.842 197.663 534.082 191.75 534.259ZM255.351 535.051C255.13 535.623 255.073 543.405 255.224 552.346L255.5 568.602L270 568.672L284.5 568.741L284.816 566.127L285.133 563.513H273.566H262V558.513V553.513H272H282V551.013V548.513H272H262V544.013V539.513H273.566H285.133L284.816 536.763L284.5 534.013H270.127C261.116 534.013 255.604 534.4 255.351 535.051ZM335.741 534.942C328.181 537.64 325.998 541.399 326.004 551.713C326.01 563.849 330.196 568.436 342.035 569.283C350.946 569.921 357.033 567.814 359.96 563.077C362.732 558.593 362.533 557.513 358.935 557.513C356.758 557.513 355.14 558.381 353.347 560.513C351.022 563.276 350.312 563.513 344.366 563.513C338.844 563.513 337.554 563.158 335.455 561.058C333.31 558.914 333 557.708 333 551.513C333 545.318 333.31 544.112 335.455 541.968C337.528 539.894 338.863 539.513 344.053 539.513C349.591 539.513 350.474 539.809 353 542.513C354.914 544.562 356.757 545.513 358.815 545.513C361.474 545.513 361.749 545.247 361.164 543.246C359.99 539.237 357.289 536.378 353.347 534.972C348.455 533.228 340.582 533.215 335.741 534.942ZM404.464 534.383C404.209 534.638 404 542.421 404 551.68V568.513H407.456H410.912L411.206 561.263L411.5 554.013L421.75 553.728L432 553.443V560.811C432 564.864 432.222 568.402 432.494 568.674C432.766 568.946 434.341 568.97 435.994 568.727L439 568.286V551.513V534.74L435.994 534.299C434.341 534.056 432.766 534.08 432.494 534.352C432.222 534.624 432 537.921 432 541.68V548.513H421.544H411.088L410.794 541.263C410.503 534.081 410.474 534.013 407.714 533.966C406.181 533.94 404.719 534.128 404.464 534.383ZM571.275 534.484C562.774 536.504 559.596 541.849 560.168 553.167C560.785 565.392 565.086 569.01 579 569.012C586.087 569.013 588.104 568.638 591.132 566.754C596.129 563.647 597.278 560.277 596.854 549.972C596.516 541.729 596.359 541.223 593.303 538.493C588.259 533.986 579.829 532.452 571.275 534.484ZM718.275 534.484C710.088 536.429 706.361 542.968 707.235 553.855C708.163 565.414 712.594 568.991 726 569.004C735.397 569.014 739.461 567.419 742.251 562.627C746.197 555.851 745.11 542.876 740.21 538.255C735.763 534.061 726.65 532.494 718.275 534.484ZM797.5 534.185C789.389 535.97 786.027 540.307 785.25 549.991C784.627 557.75 787.179 563.982 792.229 567.034C796.123 569.388 809.603 569.817 814.5 567.742C819.285 565.716 822.176 560.624 821.809 554.869L821.5 550.02L812.5 550.017L803.5 550.013L803.184 552.763C802.869 555.496 802.906 555.513 808.934 555.513C814.05 555.513 814.998 555.787 814.985 557.263C814.948 561.468 811.105 563.513 803.24 563.513C798.227 563.513 796.994 563.135 794.966 560.977C792.899 558.776 792.593 557.498 792.65 551.298C792.709 544.819 792.966 543.939 795.413 541.834C797.586 539.965 799.277 539.513 804.101 539.513C809.157 539.513 810.481 539.903 812.591 542.013C815.266 544.688 821 545.522 821 543.236C821 536.853 808.047 531.864 797.5 534.185ZM858 534.395C858 534.997 858.653 536.283 859.452 537.252C860.25 538.22 863.622 542.838 866.944 547.513C872.844 555.818 872.983 556.164 872.992 562.559C873 569.044 873.026 569.105 875.75 569.059C878.435 569.014 878.512 568.848 879 562.009C879.487 555.18 879.683 554.755 886.801 545.009L894.103 535.013L891.301 534.45C889.761 534.14 888.05 534.037 887.5 534.221C886.95 534.404 884.267 537.695 881.539 541.534C878.81 545.372 876.296 548.513 875.952 548.513C875.608 548.513 873.155 545.363 870.5 541.513C866.935 536.343 865.084 534.513 863.419 534.513C862.178 534.513 860.452 534.24 859.582 533.906C858.712 533.572 858 533.792 858 534.395ZM483 551.346C483 560.605 483.222 568.402 483.494 568.674C483.766 568.946 485.328 568.972 486.964 568.732L489.94 568.295L490.22 556.232L490.5 544.17L499.915 555.592C511.092 569.15 511.412 569.439 514.835 569.075L517.5 568.792L517.774 551.652L518.047 534.513H515.024H512V546.513C512 553.113 511.631 558.513 511.179 558.513C510.728 558.513 507.94 555.475 504.984 551.763C492.663 536.288 490.812 534.539 486.75 534.526L483 534.513V551.346ZM640 551.346C640 560.605 640.186 568.367 640.413 568.596C640.641 568.826 647.166 568.877 654.913 568.71L669 568.408V565.96V563.513H658H647V549.013V534.513H643.5H640V551.346ZM587.956 541.966C589.875 544.009 590.281 545.587 590.381 551.385C590.485 557.471 590.194 558.675 588.076 560.931C585.936 563.21 584.863 563.513 578.936 563.513C569.24 563.513 567.664 561.996 567.169 552.182C566.814 545.164 566.967 544.455 569.348 542.074C571.599 539.823 572.741 539.513 578.78 539.513C584.782 539.513 585.943 539.824 587.956 541.966ZM734.694 541.926C737.272 544.144 737.5 544.909 737.5 551.346C737.5 557.44 737.175 558.7 735 561.024C732.659 563.526 732.04 563.673 725.267 563.336C716.144 562.882 714.784 561.679 714.196 553.541C713.698 546.664 715.116 542.251 718.321 540.702C719.52 540.122 723.062 539.618 726.194 539.581C730.831 539.526 732.409 539.961 734.694 541.926ZM0.667 548.18C0.3 548.546 0 549.446 0 550.18C0 551.278 12.583 551.513 71.5 551.513C142.333 551.513 143 551.494 143 549.513C143 547.532 142.333 547.513 72.167 547.513C33.208 547.513 1.033 547.813 0.667 548.18ZM929.676 548.915C929.38 549.686 929.407 550.586 929.736 550.915C930.064 551.244 961.533 551.513 999.667 551.513C1068.33 551.513 1069 551.494 1069 549.513C1069 547.532 1068.33 547.513 999.607 547.513C940.997 547.513 930.13 547.731 929.676 548.915Z" fill="black"/>
<path d="M294.455 301.968C292.39 304.032 292 305.382 292 310.468V316.513H397.5H503V310.052C503 304.693 502.627 303.243 500.811 301.552C498.639 299.528 497.883 299.513 397.766 299.513H296.909L294.455 301.968Z" fill="black"/>
</svg>
