<svg width="508" height="317" viewBox="0 0 508 317" fill="none" xmlns="http://www.w3.org/2000/svg">
<path d="M2.45499 301.968C0.389987 304.032 0 305.382 0 310.468V316.513H105.5H211V310.052C211 304.693 210.627 303.243 208.811 301.552C206.639 299.528 205.883 299.513 105.766 299.513H4.909L2.45499 301.968Z" fill="white"/>
<path fill-rule="evenodd" clip-rule="evenodd" d="M302.835 72.5491C312.291 65.0741 318.673 53.8152 319.703 42.7932C319.995 39.6682 324.97 42.9527 328.038 44.9782L328.252 45.1196L328.5 45.283C334.294 50.5475 362.209 74.0116 381.637 90.3409C389.277 96.7628 395.604 102.081 398.757 104.755L409.014 113.454L405.757 115.121C395.917 120.158 390.673 125.847 386.575 135.931L384.304 141.519L345.402 112.376C324.006 96.3471 304.586 81.6901 302.247 79.8041L297.995 76.3751L302.835 72.5491ZM237.422 52.9332C227.598 30.7182 241.779 4.25216 265.5 0.529155C268.25 0.0971553 271.625 -0.112832 273 0.0611683C289.583 2.16417 299.684 9.13517 306.111 22.9142C308.809 28.6992 309.342 31.0442 309.403 37.4142C309.493 46.8062 307.242 53.7622 301.945 60.4632C292.174 72.8252 276.362 78.1441 261.932 73.9251C251.091 70.7551 241.775 62.7762 237.422 52.9332ZM289.337 52.4332C300.022 39.9502 294.425 20.6862 278.761 16.0352C273.244 14.3962 269.948 14.2452 265.994 15.4472C258.803 17.6352 253.16 22.4892 250.553 28.7312C248.698 33.1722 248.522 42.3192 250.216 46.2162C257.176 62.2242 278.109 65.5502 289.337 52.4332ZM231.933 141.867C234.37 139.747 244.045 131.161 253.433 122.786C262.82 114.411 270.668 107.548 270.872 107.536L270.885 107.535L270.901 107.534C270.94 107.53 270.977 107.527 270.994 107.544C271.186 107.731 268.914 110.45 240.95 143.903L240.946 143.909L240.943 143.912L240.941 143.915L240.932 143.925L239.215 145.979C202.472 189.935 193.983 199.939 176.25 220.185C168.413 229.133 162.012 236.805 162.026 237.234C162.04 237.662 164.326 239.556 167.105 241.442C181.066 250.914 190.914 269.401 190.983 286.263L191 290.513H105.93H20.861L21.18 288.263C21.486 286.11 21.962 286.001 32.25 285.729L43 285.445V261.514V237.582L49.75 244.308C61.448 255.964 74.914 261.513 91.5 261.513C108.654 261.513 121.259 256.361 133.077 244.52C141.116 236.465 147.449 225.81 148.646 218.325C149.217 214.757 151.327 212.658 176.382 190.74C191.297 177.693 206 164.766 209.056 162.015C214.421 157.185 222.696 149.897 231.933 141.867ZM397.583 133.004C401.082 127.704 405.228 124.488 411.409 122.277C420.728 118.943 432.713 121.294 439.845 127.856C446.469 133.949 449.877 145.233 447.842 154.33C446.84 158.807 446.877 159.823 448.073 160.579C450.278 161.975 454.819 161.678 457.429 159.967C458.983 158.949 460.731 158.658 462.549 159.115C465.247 159.792 500.252 185.308 502.773 188.435C505.738 192.113 508 197.699 508 201.345C508 205.277 495.882 246.031 494.218 247.695C493.728 248.185 491.764 248.839 489.852 249.15L486.377 249.713L482.733 241.628C479.332 234.081 479.179 233.326 480.433 230.278C481.171 228.482 482.804 221.712 484.061 215.233C486.344 203.466 486.344 203.451 484.366 200.802C482.129 197.805 472.276 191.985 467 190.544C465.075 190.018 461.475 189.334 459 189.024C454.642 188.479 454.384 188.248 450.803 181.69C447.622 175.867 441.905 168.513 440.558 168.513C440.324 168.513 437.903 169.899 435.178 171.593C432.453 173.287 428.377 174.921 426.12 175.224L422.018 175.774L422.627 179.893C422.962 182.159 424.04 186.998 425.022 190.645L426.807 197.278L421.867 202.144C418.012 205.941 416.496 208.406 414.963 213.367C412.358 221.802 412.432 225.649 415.25 228.209C418.603 231.257 437.311 243.513 438.61 243.513C439.228 243.513 441.206 247.411 443.004 252.176C446.13 260.457 446.193 260.898 444.446 262.176C440.016 265.415 435.513 263.508 405.787 245.806C388.092 235.268 387.638 233.876 392.636 205.513C396.089 185.914 396.925 183.371 400.279 182.253C400.827 182.071 401.66 179.106 402.131 175.666C402.94 169.751 402.847 169.264 400.425 166.712C391.897 157.724 390.693 143.438 397.583 133.004ZM433.792 155.909C437.826 149.051 435.772 140.353 428.938 135.353C426.329 133.443 419.781 132.312 416.5 133.203C409.696 135.052 404.326 143.565 405.517 150.615C407.887 164.64 426.595 168.143 433.792 155.909ZM59.715 233.169C36.923 210.011 46.021 170.304 76.579 159.573C81.393 157.883 84.463 157.542 93 157.753C102.478 157.988 104.167 158.329 110.347 161.256C125.469 168.418 135.951 184.751 135.988 201.214C136.08 241.346 87.708 261.612 59.715 233.169ZM109.829 220.049C123.45 207.742 117.935 183.108 100.205 177.067C81.935 170.842 63.563 184.726 65.263 203.474C66.187 213.663 71.209 220.809 80.5 225.155C90.275 229.727 101.227 227.82 109.829 220.049Z" fill="white"/>
<path d="M210.421 66.3461C199.782 74.6701 189.243 82.8001 136.5 123.372C123.3 133.527 111.874 142.404 111.109 143.1C109.957 144.149 110.866 144.886 116.422 147.405C132.453 154.674 143.587 167.69 148.929 185.405L150.555 190.797L156.527 185.847C164.738 179.041 212.444 140.594 216.502 137.513C220.42 134.537 238.871 119.594 259.12 102.996C275.089 89.9071 275.06 89.9781 264.5 89.6101C254.779 89.2711 238.204 80.4371 231.085 71.8001C229.398 69.7531 226.777 65.7032 225.259 62.7992C223.742 59.8942 222.275 57.5542 222 57.5982C221.725 57.6422 216.515 61.5791 210.421 66.3461Z" fill="white"/>
</svg>
