<svg width="1069" height="570" viewBox="0 0 1069 570" fill="none" xmlns="http://www.w3.org/2000/svg">
<path d="M502.421 66.3461C491.782 74.6701 481.243 82.8001 428.5 123.372C415.3 133.527 403.874 142.404 403.109 143.1C401.957 144.149 402.866 144.886 408.422 147.405C424.453 154.674 435.587 167.69 440.929 185.405L442.555 190.797L448.527 185.847C456.738 179.041 504.444 140.594 508.502 137.513C512.42 134.537 530.871 119.594 551.12 102.996C567.089 89.9071 567.06 89.9781 556.5 89.6101C546.779 89.2711 530.204 80.4371 523.085 71.8001C521.398 69.7531 518.777 65.7032 517.259 62.7992C515.742 59.8942 514.275 57.5542 514 57.5982C513.725 57.6422 508.515 61.5791 502.421 66.3461Z" fill="#DE1422"/>
<path d="M294.455 301.968C292.39 304.032 292 305.382 292 310.468V316.513H397.5H503V310.052C503 304.693 502.627 303.243 500.811 301.552C498.639 299.528 497.883 299.513 397.766 299.513H296.909L294.455 301.968Z" fill="#113F8D"/>
<path d="M0.667 548.18C0.3 548.546 0 549.446 0 550.18C0 551.278 12.583 551.513 71.5 551.513C142.333 551.513 143 551.494 143 549.513C143 547.532 142.333 547.513 72.167 547.513C33.208 547.513 1.033 547.813 0.667 548.18Z" fill="#DE1422"/>
<path d="M916.676 548.915C916.38 549.686 916.407 550.586 916.736 550.915C917.064 551.244 948.533 551.513 986.667 551.513C1055.33 551.513 1056 551.494 1056 549.513C1056 547.532 1055.33 547.513 986.607 547.513C927.997 547.513 917.13 547.731 916.676 548.915Z" fill="#DE1422"/>
<path d="M126.715 383.513C124.94 383.866 116.974 392.454 99.587 412.763C86.048 428.576 74.558 441.513 74.054 441.513C73.549 441.513 69.623 437.35 65.329 432.263C61.035 427.176 56.753 422.166 55.813 421.13C54.873 420.094 47.443 411.215 39.302 401.398L24.5 383.549L12.25 383.531L0 383.513V434.513V485.513H11.5C21.736 485.513 23.014 485.321 23.13 483.763C23.202 482.801 23.398 467.613 23.567 450.013C23.735 432.413 23.901 417.872 23.936 417.7C23.971 417.528 27.937 421.99 32.75 427.616C52.037 450.166 73.188 474.51 73.825 474.895C74.52 475.316 76.467 473.135 105.783 439.086C115.289 428.046 123.501 418.863 124.033 418.68C124.643 418.469 125 430.742 125 451.93V485.513H136.5H148V434.582V383.65L138.614 383.332C133.452 383.156 128.097 383.238 126.715 383.513Z" fill="#DE1422"/>
<path d="M251.673 389.734C247.376 397.538 223.668 440.403 220.269 446.513C218.892 448.988 213.543 458.596 208.383 467.863C203.222 477.13 199 484.892 199 485.112C199 485.333 204.844 485.513 211.986 485.513H224.971L227.937 479.638C229.568 476.406 235.469 465.51 241.049 455.425C246.629 445.339 254.281 431.22 258.054 424.05C258.824 422.586 259.528 421.238 260.173 420.002C264.325 412.048 266.065 408.716 267.608 408.804C268.72 408.868 269.731 410.709 271.47 413.878L271.472 413.881L271.476 413.888C271.85 414.569 272.257 415.311 272.706 416.109C275.46 421.006 279.435 428.163 281.54 432.013C296.83 459.99 303.409 471.962 306.956 478.263L311.037 485.513H323.518C330.383 485.513 336 485.261 336 484.953C336 484.644 328.073 470.132 318.385 452.703L300.703 420.891L292.989 407.013C288.709 399.313 284.08 390.988 282.703 388.513L280.199 384.013L267.665 383.734L255.131 383.454L251.673 389.734Z" fill="#DE1422"/>
<path fill-rule="evenodd" clip-rule="evenodd" d="M594.835 72.5491C604.291 65.0741 610.673 53.8152 611.703 42.7932C611.995 39.6682 616.97 42.9527 620.038 44.9782L620.252 45.1196L620.5 45.283C626.294 50.5475 654.209 74.0116 673.637 90.3409C681.277 96.7628 687.604 102.081 690.757 104.755L701.014 113.454L697.757 115.121C687.917 120.158 682.673 125.847 678.575 135.931L676.304 141.519L637.402 112.376C616.006 96.3471 596.586 81.6901 594.247 79.8041L589.995 76.3751L594.835 72.5491ZM529.422 52.9332C519.598 30.7182 533.779 4.25216 557.5 0.529155C560.25 0.0971553 563.625 -0.112832 565 0.0611683C581.583 2.16417 591.684 9.13517 598.111 22.9142C600.809 28.6992 601.342 31.0442 601.403 37.4142C601.493 46.8062 599.242 53.7622 593.945 60.4632C584.174 72.8252 568.362 78.1441 553.932 73.9251C543.091 70.7551 533.775 62.7762 529.422 52.9332ZM581.337 52.4332C592.022 39.9502 586.425 20.6862 570.761 16.0352C565.244 14.3962 561.948 14.2452 557.994 15.4472C550.803 17.6352 545.16 22.4892 542.553 28.7312C540.698 33.1722 540.522 42.3192 542.216 46.2162C549.176 62.2242 570.109 65.5502 581.337 52.4332ZM523.933 141.867C526.37 139.747 536.045 131.161 545.433 122.786C554.82 114.411 562.668 107.548 562.872 107.536L562.885 107.535L562.901 107.534C562.94 107.53 562.977 107.527 562.994 107.544C563.186 107.731 560.914 110.45 532.95 143.903L532.946 143.909L532.943 143.912L532.941 143.915L532.932 143.925L531.215 145.979C494.472 189.935 485.983 199.939 468.25 220.185C460.413 229.133 454.012 236.805 454.026 237.234C454.04 237.662 456.326 239.556 459.105 241.442C473.066 250.914 482.914 269.401 482.983 286.263L483 290.513H397.93H312.861L313.18 288.263C313.486 286.11 313.962 286.001 324.25 285.729L335 285.445V261.514V237.582L341.75 244.308C353.448 255.964 366.914 261.513 383.5 261.513C400.654 261.513 413.259 256.361 425.077 244.52C433.116 236.465 439.449 225.81 440.646 218.325C441.217 214.757 443.327 212.658 468.382 190.74C483.297 177.693 498 164.766 501.056 162.015C506.421 157.185 514.696 149.897 523.933 141.867ZM689.583 133.004C693.082 127.704 697.228 124.488 703.409 122.277C712.728 118.943 724.713 121.294 731.845 127.856C738.469 133.949 741.877 145.233 739.842 154.33C738.84 158.807 738.877 159.823 740.073 160.579C742.278 161.975 746.819 161.678 749.429 159.967C750.983 158.949 752.731 158.658 754.549 159.115C757.247 159.792 792.252 185.308 794.773 188.435C797.738 192.113 800 197.699 800 201.345C800 205.277 787.882 246.031 786.218 247.695C785.728 248.185 783.764 248.839 781.852 249.15L778.377 249.713L774.733 241.628C771.332 234.081 771.179 233.326 772.433 230.278C773.171 228.482 774.804 221.712 776.061 215.233C778.344 203.466 778.344 203.451 776.366 200.802C774.129 197.805 764.276 191.985 759 190.544C757.075 190.018 753.475 189.334 751 189.024C746.642 188.479 746.384 188.248 742.803 181.69C739.622 175.867 733.905 168.513 732.558 168.513C732.324 168.513 729.903 169.899 727.178 171.593C724.453 173.287 720.377 174.921 718.12 175.224L714.018 175.774L714.627 179.893C714.962 182.159 716.04 186.998 717.022 190.645L718.807 197.278L713.867 202.144C710.012 205.941 708.496 208.406 706.963 213.367C704.358 221.802 704.432 225.649 707.25 228.209C710.603 231.257 729.311 243.513 730.61 243.513C731.228 243.513 733.206 247.411 735.004 252.176C738.13 260.457 738.193 260.898 736.446 262.176C732.016 265.415 727.513 263.508 697.787 245.806C680.092 235.268 679.638 233.876 684.636 205.513C688.089 185.914 688.925 183.371 692.279 182.253C692.827 182.071 693.66 179.106 694.131 175.666C694.94 169.751 694.847 169.264 692.425 166.712C683.897 157.724 682.693 143.438 689.583 133.004ZM725.792 155.909C729.826 149.051 727.772 140.353 720.938 135.353C718.329 133.443 711.781 132.312 708.5 133.203C701.696 135.052 696.326 143.565 697.517 150.615C699.887 164.64 718.595 168.143 725.792 155.909ZM351.715 233.169C328.923 210.011 338.021 170.304 368.579 159.573C373.393 157.883 376.463 157.542 385 157.753C394.478 157.988 396.167 158.329 402.347 161.256C417.469 168.418 427.951 184.751 427.988 201.214C428.08 241.346 379.708 261.612 351.715 233.169ZM401.829 220.049C415.45 207.742 409.935 183.108 392.205 177.067C373.935 170.842 355.563 184.726 357.263 203.474C358.187 213.663 363.209 220.809 372.5 225.155C382.275 229.727 393.227 227.82 401.829 220.049ZM550 383.652L552.25 383.275C555.971 382.651 567.279 382.59 570.718 383.176C574.115 383.754 577.403 387.358 608.431 424.513C620.679 439.179 622.775 441.461 624.027 441.498C624.317 441.506 635.662 428.529 649.237 412.66L673.92 383.806L679.96 383.175C683.282 382.828 688.7 382.826 692 383.171L698 383.798V434.655V485.513H686H674L673.968 451.263C673.94 420.557 673.781 417.22 672.433 419.013C670.552 421.515 664.688 428.428 655 439.566C650.875 444.308 642.139 454.376 635.586 461.94L623.672 475.691L621.043 472.852C619.598 471.291 612.882 463.488 606.119 455.513C599.357 447.538 589.251 435.655 583.662 429.107L573.5 417.2L573.237 451.357L572.974 485.513H561.487H550V434.583V383.652ZM769 385.408C770.955 384.317 779.232 383.904 807 383.512C855.169 382.832 864.322 383.167 869.984 385.818C872.45 386.973 876.387 389.892 878.732 392.306C885.706 399.481 886.162 402.374 885.805 437.208C885.462 470.74 885.407 471.01 877.335 478.635L877.285 478.683C875.887 480.004 874.755 481.073 873.483 481.937C868.069 485.614 860.123 485.565 818.351 485.304L818 485.302L771.5 485.013L766.906 482.313C761.726 479.267 757.811 474.6 754.882 467.98C753.014 463.756 752.911 461.631 753.196 433.247L753.5 403.013L756.449 397.689C759.253 392.628 763.49 388.482 769 385.408ZM940 383.64L943.25 383.179C945.037 382.926 949.154 382.897 952.397 383.116C955.64 383.334 959.915 383.522 961.897 383.532C965.574 383.552 968.207 385.643 989.5 405.447C995.287 410.829 1003.49 418.327 1017.46 431.013C1022.92 435.963 1030.14 442.59 1033.52 445.739C1036.9 448.888 1040.87 452.408 1042.33 453.561L1045 455.658V419.646V383.634L1056.59 383.324C1062.96 383.153 1068.36 383.201 1068.59 383.43C1068.81 383.659 1069 406.721 1069 434.68V485.513H1055.95H1042.9L1026.2 470.311C1017.01 461.949 1001.18 447.392 991 437.963C980.825 428.533 970.588 419.122 968.25 417.049L964 413.28V449.397V485.513H952H940V434.576V383.64ZM860.41 408.857C859.26 407.319 857.235 405.757 855.91 405.386C854.584 405.016 837.975 404.683 819 404.648C792.136 404.598 783.971 404.877 782.11 405.909C777.43 408.502 777.073 410.502 777.035 434.313C776.999 457.463 777.607 461.381 781.467 462.862C782.315 463.187 799.464 463.497 819.577 463.55L820.957 463.554C851.493 463.636 858.142 463.654 860.531 460.473C861.197 459.587 861.532 458.454 861.96 457.004L862.03 456.767C862.74 454.37 863.026 445.539 862.821 432.333C862.524 413.192 862.344 411.445 860.41 408.857ZM181 537.047C181 534.598 181.076 534.578 191.75 534.259C197.663 534.082 203.225 533.842 204.11 533.725C204.996 533.609 207.73 533.788 210.185 534.125C213.958 534.642 214.625 535.068 214.495 536.875C214.356 538.797 213.668 539.043 207.67 539.309L201 539.604V554.059V568.513H197.5H194V554.013V539.513H187.5C181.257 539.513 181 539.415 181 537.047ZM255.224 552.346C255.073 543.405 255.13 535.623 255.351 535.051C255.604 534.4 261.116 534.013 270.127 534.013H284.5L284.816 536.763L285.133 539.513H273.566H262V544.013V548.513H272H282V551.013V553.513H272H262V558.513V563.513H273.566H285.133L284.816 566.127L284.5 568.741L270 568.672L255.5 568.602L255.224 552.346ZM326.004 551.713C325.998 541.399 328.181 537.64 335.741 534.942C340.582 533.215 348.455 533.228 353.347 534.972C357.289 536.378 359.99 539.237 361.164 543.246C361.749 545.247 361.474 545.513 358.815 545.513C356.757 545.513 354.914 544.562 353 542.513C350.474 539.809 349.591 539.513 344.053 539.513C338.863 539.513 337.528 539.894 335.455 541.968C333.31 544.112 333 545.318 333 551.513C333 557.708 333.31 558.914 335.455 561.058C337.554 563.158 338.844 563.513 344.366 563.513C350.312 563.513 351.022 563.276 353.347 560.513C355.14 558.381 356.758 557.513 358.935 557.513C362.533 557.513 362.732 558.593 359.96 563.077C357.033 567.814 350.946 569.921 342.035 569.283C330.196 568.436 326.01 563.849 326.004 551.713ZM404 551.68C404 542.421 404.209 534.638 404.464 534.383C404.719 534.128 406.181 533.94 407.714 533.966C410.474 534.013 410.503 534.081 410.794 541.263L411.088 548.513H421.544H432V541.68C432 537.921 432.222 534.624 432.494 534.352C432.766 534.08 434.341 534.056 435.994 534.299L439 534.74V551.513V568.286L435.994 568.727C434.341 568.97 432.766 568.946 432.494 568.674C432.222 568.402 432 564.864 432 560.811V553.443L421.75 553.728L411.5 554.013L411.206 561.263L410.912 568.513H407.456H404V551.68ZM560.168 553.167C559.596 541.849 562.774 536.504 571.275 534.484C579.829 532.452 588.259 533.986 593.303 538.493C596.359 541.223 596.516 541.729 596.854 549.972C597.278 560.277 596.129 563.647 591.132 566.754C588.104 568.638 586.087 569.013 579 569.012C565.086 569.01 560.785 565.392 560.168 553.167ZM707.235 553.855C706.361 542.968 710.088 536.429 718.275 534.484C726.65 532.494 735.763 534.061 740.21 538.255C745.11 542.876 746.197 555.851 742.251 562.627C739.461 567.419 735.397 569.014 726 569.004C712.594 568.991 708.163 565.414 707.235 553.855ZM785.25 549.991C786.027 540.307 789.389 535.97 797.5 534.185C808.047 531.864 821 536.853 821 543.236C821 545.522 815.266 544.688 812.591 542.013C810.481 539.903 809.157 539.513 804.101 539.513C799.277 539.513 797.586 539.965 795.413 541.834C792.966 543.939 792.709 544.819 792.65 551.298C792.593 557.498 792.899 558.776 794.966 560.977C796.994 563.135 798.227 563.513 803.24 563.513C811.105 563.513 814.948 561.468 814.985 557.263C814.998 555.787 814.05 555.513 808.934 555.513C802.906 555.513 802.869 555.496 803.184 552.763L803.5 550.013L812.5 550.017L821.5 550.02L821.809 554.869C822.176 560.624 819.285 565.716 814.5 567.742C809.603 569.817 796.123 569.388 792.229 567.034C787.179 563.982 784.627 557.75 785.25 549.991ZM859.452 537.252C858.653 536.283 858 534.997 858 534.395C858 533.792 858.712 533.572 859.582 533.906C860.452 534.24 862.178 534.513 863.419 534.513C865.084 534.513 866.935 536.343 870.5 541.513C873.155 545.363 875.608 548.513 875.952 548.513C876.296 548.513 878.81 545.372 881.539 541.534C884.267 537.695 886.95 534.404 887.5 534.221C888.05 534.037 889.761 534.14 891.301 534.45L894.103 535.013L886.801 545.009C879.683 554.755 879.487 555.18 879 562.009C878.512 568.848 878.435 569.014 875.75 569.059C873.026 569.105 873 569.044 872.992 562.559C872.983 556.164 872.844 555.818 866.944 547.513C863.622 542.838 860.25 538.22 859.452 537.252ZM483.494 568.674C483.222 568.402 483 560.605 483 551.346V534.513L486.75 534.526C490.812 534.539 492.663 536.288 504.984 551.763C507.94 555.475 510.728 558.513 511.179 558.513C511.631 558.513 512 553.113 512 546.513V534.513H515.024H518.047L517.774 551.652L517.5 568.792L514.835 569.075C511.412 569.439 511.092 569.15 499.915 555.592L490.5 544.17L490.22 556.232L489.94 568.295L486.964 568.732C485.328 568.972 483.766 568.946 483.494 568.674ZM640.413 568.596C640.186 568.367 640 560.605 640 551.346V534.513H643.5H647V549.013V563.513H658H669V565.96V568.408L654.913 568.71C647.166 568.877 640.641 568.826 640.413 568.596ZM590.381 551.385C590.281 545.587 589.875 544.009 587.956 541.966C585.943 539.824 584.782 539.513 578.78 539.513C572.741 539.513 571.599 539.823 569.348 542.074C566.967 544.455 566.814 545.164 567.169 552.182C567.664 561.996 569.24 563.513 578.936 563.513C584.863 563.513 585.936 563.21 588.076 560.931C590.194 558.675 590.485 557.471 590.381 551.385ZM737.5 551.346C737.5 544.909 737.272 544.144 734.694 541.926C732.409 539.961 730.831 539.526 726.194 539.581C723.062 539.618 719.52 540.122 718.321 540.702C715.116 542.251 713.698 546.664 714.196 553.541C714.784 561.679 716.144 562.882 725.267 563.336C732.04 563.673 732.659 563.526 735 561.024C737.175 558.7 737.5 557.44 737.5 551.346Z" fill="#113F8D"/>
<path d="M368 394.013V404.513H394.5H421V445.013V485.513H433H445V445.013V404.513H471.532H498.064L497.782 394.021L497.5 383.53L432.75 383.521L368 383.513V394.013Z" fill="#DE1422"/>
</svg>
